HIERARCHY
ROOT Hips
{
	OFFSET	0.00	0.00	0.00
	CHANNELS 6 Xposition Yposition Zposition Zrotation Xrotation Yrotation
	JOINT LeftUpLeg
	{
		OFFSET	 0.126116	-0.014019	-0.065224
		CHANNELS 3 Zrotation Xrotation Yrotation
		JOINT LeftLeg
		{
			OFFSET	 0.000000	 0.000000	 0.569914
			CHANNELS 3 Zrotation Xrotation Yrotation
			JOINT LeftFoot
			{
				OFFSET	 0.000000	 0.000000	 0.544423
				CHANNELS 3 Zrotation Xrotation Yrotation
				JOINT LeftToeBase
				{
					OFFSET	 0.000000	 0.000000	 0.207117
					CHANNELS 3 Zrotation Xrotation Yrotation
					End Site
					{
						OFFSET	 0.000000	 0.000000	 0.207117
					}
				}
			}
		}
	}
	JOINT RightUpLeg
	{
		OFFSET	-0.124023	-0.008373	-0.065224
		CHANNELS 3 Zrotation Xrotation Yrotation
		JOINT RightLeg
		{
			OFFSET	 0.000000	 0.000000	 0.570047
			CHANNELS 3 Zrotation Xrotation Yrotation
			JOINT RightFoot
			{
				OFFSET	 0.000000	 0.000000	 0.544354
				CHANNELS 3 Zrotation Xrotation Yrotation
				JOINT RightToeBase
				{
					OFFSET	 0.000000	 0.000000	 0.207540
					CHANNELS 3 Zrotation Xrotation Yrotation
					End Site
					{
						OFFSET	 0.000000	 0.000000	 0.207540
					}
				}
			}
		}
	}
	JOINT Spine
	{
		OFFSET	 0.000184	-0.007763	 0.117403
		CHANNELS 3 Zrotation Xrotation Yrotation
		JOINT Spine1
		{
			OFFSET	 0.000000	 0.000000	 0.137269
			CHANNELS 3 Zrotation Xrotation Yrotation
			JOINT Spine2
			{
				OFFSET	 0.000000	 0.000000	 0.156879
				CHANNELS 3 Zrotation Xrotation Yrotation
				JOINT LeftShoulder
				{
					OFFSET	 0.080501	-0.002496	 0.160144
					CHANNELS 3 Zrotation Xrotation Yrotation
					JOINT LeftArm
					{
						OFFSET	 0.000000	 0.000000	 0.164363
						CHANNELS 3 Zrotation Xrotation Yrotation
						JOINT LeftForeArm
						{
							OFFSET	 0.000000	 0.000000	 0.364576
							CHANNELS 3 Zrotation Xrotation Yrotation
							JOINT LeftHand
							{
								OFFSET	 0.000000	 0.000000	 0.360812
								CHANNELS 3 Zrotation Xrotation Yrotation
								JOINT LeftHandIndex1
								{
									OFFSET	 0.000000	 0.000000	 0.086006
									CHANNELS 3 Zrotation Xrotation Yrotation
									JOINT LeftHandIndex2
									{
										OFFSET	 0.000000	 0.000000	 0.047236
										CHANNELS 3 Zrotation Xrotation Yrotation
										JOINT LeftHandIndex3
										{
											OFFSET	-0.004284	-0.000551	 0.038166
											CHANNELS 3 Zrotation Xrotation Yrotation
											End Site
											{
												OFFSET	-0.004284	-0.000551	 0.038166
											}
										}
									}
								}
							}
						}
					}
				}
				JOINT Neck
				{
					OFFSET	 0.000000	 0.000000	 0.176489
					CHANNELS 3 Zrotation Xrotation Yrotation
					JOINT Head
					{
						OFFSET	 0.000000	-0.001747	 0.077940
						CHANNELS 3 Zrotation Xrotation Yrotation
						End Site
						{
							OFFSET	 0.000000	-0.001747	 0.077940
						}
					}
				}
				JOINT RightShoulder
				{
					OFFSET	-0.080363	 0.000306	 0.159706
					CHANNELS 3 Zrotation Xrotation Yrotation
					JOINT RightArm
					{
						OFFSET	 0.000000	 0.000000	 0.164196
						CHANNELS 3 Zrotation Xrotation Yrotation
						JOINT RightForeArm
						{
							OFFSET	 0.000000	 0.000000	 0.365611
							CHANNELS 3 Zrotation Xrotation Yrotation
							JOINT RightHand
							{
								OFFSET	 0.000000	 0.000000	 0.360648
								CHANNELS 3 Zrotation Xrotation Yrotation
								JOINT RightHandIndex1
								{
									OFFSET	 0.000000	 0.000000	 0.069977
									CHANNELS 3 Zrotation Xrotation Yrotation
									JOINT RightHandIndex2
									{
										OFFSET	 0.000000	 0.000000	 0.052305
										CHANNELS 3 Zrotation Xrotation Yrotation
										JOINT RightHandIndex3
										{
											OFFSET	 0.009002	-0.000782	 0.042196
											CHANNELS 3 Zrotation Xrotation Yrotation
											End Site
											{
												OFFSET	 0.009002	-0.000782	 0.042196
											}
										}
									}
								}
							}
						}
					}
				}
			}
		}
	}
}
MOTION
Frames:    7
Frame Time: 0.03333334
 0.000102	 0.017539	 1.301048	-0.002863	 0.007100	 0.099024	-5.605100	-1.764408	 178.939700	 1.469077	-12.288700	-0.718012	-5.186412	 65.789040	-0.990295	-2.385833	 28.452760	 0.000004	 5.481232	-2.003518	-179.082600	-1.456150	-12.258810	 0.703045	 5.019252	 65.608380	 1.005948	 2.384658	 28.388730	 0.000004	-13.922620	 2.711026	 0.189052	-1.111924	 3.676953	-0.413517	 3.379424	-4.649189	 0.730472	-91.776230	 78.527470	-180.000000	 51.919990	 37.494760	-54.424400	-20.216150	 2.094949	-8.842381	-34.957260	 6.420792	-3.553921	-2.635965	 4.993658	 6.788941	-5.165319	 0.784187	 3.516649	-5.225038	 0.466231	 0.424329	-0.000002	-3.783157	-0.089647	 3.285343	 4.946192	-0.141948	 89.782020	 78.203890	-180.000000	 0.715329	 12.545060	 108.070600	-22.231450	 1.755996	 8.918700	 10.724140	 4.712715	-6.718422	 6.112037	 4.509576	-0.364401	 4.968462	 1.518543	-9.347576	 5.168945	 0.703820	 2.021906
 0.000089	 0.017460	 1.302460	-0.002874	 0.007089	 0.099013	-5.479779	-1.767897	 178.930500	 1.469075	-12.288820	-0.718018	-5.187113	 65.567180	-0.982384	-2.385833	 28.452760	 0.000004	 5.355987	-2.006713	-179.073900	-1.456142	-12.259020	 0.703059	 5.019156	 65.386890	 0.999105	 2.384658	 28.388730	 0.000004	-13.979130	 2.711028	 0.189063	-1.111920	 3.676960	-0.413504	 3.379429	-4.649190	 0.730466	-91.776140	 78.527470	 180.000000	 51.914910	 37.478180	-54.408550	-20.374460	 2.145659	-8.951164	-34.371300	 5.024974	-3.761147	-2.635965	 4.993658	 6.788941	-5.165319	 0.784187	 3.516649	-5.225038	 0.466231	 0.424329	-0.000002	-3.783157	-0.089647	 3.285344	 4.946191	-0.141948	 89.782110	 78.203900	 180.000000	 0.746650	 12.681240	 108.091500	-22.177090	 1.804859	 9.026864	 9.909719	 3.359260	-6.544913	 6.112037	 4.509576	-0.364401	 4.968462	 1.518543	-9.347576	 5.168945	 0.703820	 2.021906
 0.000081	 0.017375	 1.303844	-0.002877	 0.007095	 0.099020	-5.353904	-1.771384	 178.921100	 1.469074	-12.288830	-0.718018	-5.187450	 65.344470	-0.974661	-2.385833	 28.452760	 0.000004	 5.230170	-2.009826	-179.065100	-1.456148	-12.258940	 0.703052	 5.018706	 65.164430	 0.992457	 2.384658	 28.388730	 0.000004	-14.021060	 2.711025	 0.189056	-1.111917	 3.676955	-0.413520	 3.379419	-4.649184	 0.730473	-91.776180	 78.527470	 180.000000	 51.937590	 37.467480	-54.433440	-20.533850	 2.196523	-9.059353	-33.742250	 3.046311	-3.994520	-2.635965	 4.993658	 6.788941	-5.165319	 0.784187	 3.516649	-5.225038	 0.466231	 0.424329	-0.000002	-3.783157	-0.089647	 3.285343	 4.946192	-0.141948	 89.782100	 78.203870	 180.000000	 0.727980	 12.834180	 108.099200	-22.130810	 1.854811	 9.136580	 8.953952	 1.431313	-6.353270	 6.112037	 4.509576	-0.364401	 4.968462	 1.518543	-9.347576	 5.168945	 0.703820	 2.021906
 0.000087	 0.017281	 1.305153	-0.002875	 0.007091	 0.099020	-5.230659	-1.774749	 178.912000	 1.469071	-12.288710	-0.718011	-5.187437	 65.126470	-0.967328	-2.385833	 28.452760	 0.000004	 5.107003	-2.012912	-179.056600	-1.456149	-12.258940	 0.703050	 5.018008	 64.946830	 0.986116	 2.384658	 28.388730	 0.000004	-14.042800	 2.711028	 0.189056	-1.111919	 3.676958	-0.413512	 3.379423	-4.649190	 0.730469	-91.776180	 78.527450	 180.000000	 51.990710	 37.472860	-54.504910	-20.687100	 2.244779	-9.161364	-33.095140	 0.491601	-4.224894	-2.635965	 4.993658	 6.788941	-5.165319	 0.784187	 3.516649	-5.225038	 0.466231	 0.424329	-0.000002	-3.783157	-0.089647	 3.285344	 4.946191	-0.141948	 89.782100	 78.203850	 180.000000	 0.628852	 13.011040	 108.075100	-22.099040	 1.903245	 9.243387	 7.888868	-1.021832	-6.176608	 6.112037	 4.509576	-0.364401	 4.968462	 1.518543	-9.347576	 5.168945	 0.703820	 2.021906
 0.000115	 0.017160	 1.306391	-0.002866	 0.007104	 0.099024	-5.101925	-1.778528	 178.902500	 1.469072	-12.289050	-0.718033	-5.187185	 64.899130	-0.959781	-2.385833	 28.452760	 0.000004	 4.978305	-2.016283	-179.047700	-1.456146	-12.259160	 0.703065	 5.016976	 64.719760	 0.979640	 2.384658	 28.388730	 0.000004	-14.039660	 2.711022	 0.189052	-1.111925	 3.676952	-0.413498	 3.379420	-4.649191	 0.730463	-91.776210	 78.527470	-180.000000	 52.091200	 37.497650	-54.642750	-20.840720	 2.295045	-9.265413	-32.392250	-2.861974	-4.435115	-2.635965	 4.993658	 6.788941	-5.165319	 0.784187	 3.516649	-5.225038	 0.466231	 0.424329	-0.000002	-3.783157	-0.089647	 3.285343	 4.946192	-0.141948	 89.782100	 78.203870	 180.000000	 0.680533	 13.185370	 108.040100	-22.069930	 1.952595	 9.345524	 6.182889	-4.065707	-6.043244	 6.112037	 4.509576	-0.364401	 4.968462	 1.518543	-9.347576	 5.168945	 0.703820	 2.021906
 0.000145	 0.017048	 1.307503	-0.002862	 0.007098	 0.099026	-4.986042	-1.781781	 178.893900	 1.469070	-12.289060	-0.718033	-5.186615	 64.694500	-0.953219	-2.385833	 28.452760	 0.000004	 4.862499	-2.019199	-179.039600	-1.456146	-12.259120	 0.703062	 5.015780	 64.515410	 0.974004	 2.384658	 28.388730	 0.000004	-14.009430	 2.711030	 0.189051	-1.111926	 3.676960	-0.413497	 3.379421	-4.649196	 0.730462	-91.776170	 78.527470	 180.000000	 52.212690	 37.539010	-54.820300	-20.968740	 2.337403	-9.352098	-31.737070	-6.472183	-4.563907	-2.635965	 4.993658	 6.788941	-5.165319	 0.784187	 3.516649	-5.225038	 0.466231	 0.424329	-0.000002	-3.783157	-0.089647	 3.285344	 4.946191	-0.141948	 89.782160	 78.203920	 179.999900	 0.404697	 13.413950	 107.956000	-21.898320	 1.995295	 9.434309	 4.234790	-7.329197	-5.994458	 6.112037	 4.509576	-0.364401	 4.968462	 1.518543	-9.347576	 5.168945	 0.703820	 2.021906
 0.000159	 0.016956	 1.308908	-0.002862	 0.007098	 0.099026	-4.861521	-1.785234	 178.884800	 1.469073	-12.288930	-0.718025	-5.185711	 64.474670	-0.946365	-2.385833	 28.452760	 0.000004	 4.738027	-2.022375	-179.031000	-1.456144	-12.259120	 0.703063	 5.014204	 64.295970	 0.968098	 2.384658	 28.388730	 0.000004	-13.942680	 2.711029	 0.189051	-1.111926	 3.676949	-0.413505	 3.379429	-4.649190	 0.730465	-91.776190	 78.527470	-180.000000	 52.362010	 37.598520	-55.056130	-21.092370	 2.379668	-9.437084	-31.002590	-10.922860	-4.597404	-2.635965	 4.993658	 6.788941	-5.165319	 0.784187	 3.516649	-5.225038	 0.466231	 0.424329	-0.000002	-3.783157	-0.089647	 3.285343	 4.946192	-0.141948	 89.782100	 78.203870	 180.000000	-1.009420	 13.745220	 107.731500	-21.458040	 2.039552	 9.517985	 1.881255	-11.437660	-6.072776	 6.112037	 4.509576	-0.364401	 4.968462	 1.518543	-9.347576	 5.168945	 0.703820	 2.021906
